<svg width="457" height="169" viewBox="0 0 457 169" fill="none" xmlns="http://www.w3.org/2000/svg">
<mask id="mask0_1_7" style="mask-type:alpha" maskUnits="userSpaceOnUse" x="0" y="0" width="457" height="169">
<rect width="457" height="169" fill="#474747"/>
</mask>
<g mask="url(#mask0_1_7)">
<path d="M59.76 60.304H38V90H12.4V10H64.88L61.68 30.48H38V41.232H59.76V60.304ZM72.525 90V10H98.125V90H72.525ZM158.26 60.304H136.5V90H110.9V10H163.38L160.18 30.48H136.5V41.232H158.26V60.304ZM186.222 90H159.214L179.95 10H219.502L240.238 90H213.23L210.286 77.328H189.166L186.222 90ZM199.022 34.576L193.774 56.976H205.55L200.43 34.576H199.022Z" fill="white"/>
<path d="M289.944 9.25H302.902L296.826 48H280.644L277.792 33.74H277.048L274.258 48H258.076L252 9.25H264.958L267.872 30.888H268.244L272.708 9.25H282.194L286.596 30.888H286.968L289.944 9.25ZM304.16 28.656C304.16 21.588 305.483 16.442 308.128 13.218C310.773 9.95266 315.547 8.32 322.45 8.32C329.353 8.32 334.127 9.95266 336.772 13.218C339.417 16.442 340.74 21.588 340.74 28.656C340.74 32.1693 340.451 35.1247 339.872 37.522C339.335 39.9193 338.384 42.0067 337.02 43.784C335.656 45.5613 333.775 46.8633 331.378 47.69C328.981 48.5167 326.005 48.93 322.45 48.93C318.895 48.93 315.919 48.5167 313.522 47.69C311.125 46.8633 309.244 45.5613 307.88 43.784C306.516 42.0067 305.545 39.9193 304.966 37.522C304.429 35.1247 304.16 32.1693 304.16 28.656ZM317.49 22.208V38.328H322.636C324.331 38.328 325.55 38.142 326.294 37.77C327.079 37.3567 327.472 36.4473 327.472 35.042V18.922H322.264C320.611 18.922 319.391 19.1287 318.606 19.542C317.862 19.914 317.49 20.8027 317.49 22.208ZM378.863 48H365.223L360.139 36.468H357.473V48H345.073V9.25H364.603C373.489 9.25 377.933 13.776 377.933 22.828C377.933 29.028 376.011 33.12 372.167 35.104L378.863 48ZM357.473 19.17V26.92H360.325C361.813 26.92 362.887 26.7753 363.549 26.486C364.251 26.1553 364.603 25.432 364.603 24.316V21.774C364.603 20.658 364.251 19.9553 363.549 19.666C362.887 19.3353 361.813 19.17 360.325 19.17H357.473ZM408.017 48H383.217V9.25H395.617V38.08H408.017V48ZM411.432 48V9.25H428.792C435.777 9.25 440.572 10.738 443.176 13.714C445.78 16.69 447.082 21.6707 447.082 28.656C447.082 35.6 445.78 40.56 443.176 43.536C440.572 46.512 435.777 48 428.792 48H411.432ZM428.978 19.17H423.832V38.08H428.978C430.673 38.08 431.892 37.894 432.636 37.522C433.421 37.1087 433.814 36.1993 433.814 34.794V22.456C433.814 21.0507 433.421 20.162 432.636 19.79C431.892 19.3767 430.673 19.17 428.978 19.17Z" fill="white"/>
<path d="M275.39 81.766L276.08 89.494C274.148 90.2913 271.725 90.69 268.812 90.69C265.899 90.69 263.553 90.3833 261.774 89.77C260.026 89.1567 258.646 88.1907 257.634 86.872C256.622 85.5533 255.917 84.0047 255.518 82.226C255.119 80.4473 254.92 78.2547 254.92 75.648C254.92 73.0413 255.119 70.8487 255.518 69.07C255.917 67.2607 256.622 65.6967 257.634 64.378C259.597 61.8327 263.2 60.56 268.444 60.56C269.609 60.56 270.974 60.6827 272.538 60.928C274.133 61.1427 275.313 61.4187 276.08 61.756L274.7 68.794C272.707 68.3647 270.882 68.15 269.226 68.15C267.57 68.15 266.42 68.3033 265.776 68.61C265.132 68.9167 264.81 69.53 264.81 70.45V82.502C266.006 82.7473 267.217 82.87 268.444 82.87C271.051 82.87 273.366 82.502 275.39 81.766ZM287.81 61.25V82.824H291.076C292.241 82.824 293.039 82.686 293.468 82.41C293.897 82.1033 294.112 81.4287 294.112 80.386V61.25H303.312V77.396C303.312 80.0027 303.143 82.1033 302.806 83.698C302.469 85.2927 301.84 86.642 300.92 87.746C300 88.85 298.743 89.6167 297.148 90.046C295.553 90.4753 293.483 90.69 290.938 90.69C288.393 90.69 286.323 90.4753 284.728 90.046C283.164 89.6167 281.922 88.85 281.002 87.746C280.082 86.642 279.453 85.2927 279.116 83.698C278.779 82.1033 278.61 80.0027 278.61 77.396V61.25H287.81ZM322.421 83.054H316.441V90H307.241V61.25H321.731C328.325 61.25 331.621 64.792 331.621 71.876C331.621 75.7707 330.763 78.6533 329.045 80.524C328.401 81.2293 327.512 81.8273 326.377 82.318C325.243 82.8087 323.924 83.054 322.421 83.054ZM316.441 68.61V75.694H318.557C319.661 75.694 320.459 75.5867 320.949 75.372C321.471 75.1267 321.731 74.59 321.731 73.762V70.542C321.731 69.714 321.471 69.1927 320.949 68.978C320.459 68.7327 319.661 68.61 318.557 68.61H316.441ZM342.442 69.162L341.246 62.308C345.11 61.1427 348.959 60.56 352.792 60.56C354.326 60.56 355.598 60.606 356.61 60.698C357.653 60.79 358.726 61.02 359.83 61.388C360.934 61.756 361.808 62.262 362.452 62.906C363.924 64.378 364.66 66.632 364.66 69.668C364.66 72.704 363.802 74.9427 362.084 76.384C360.367 77.8253 356.748 79.4813 351.228 81.352V82.64H364.2V90H340.602V84.25C340.602 82.5327 340.924 80.892 341.568 79.328C341.967 78.4387 342.933 77.3653 344.466 76.108C345.294 75.4027 346.398 74.728 347.778 74.084C349.189 73.44 350.508 72.842 351.734 72.29C352.992 71.7073 354.004 71.232 354.77 70.864V68.38C353.39 68.2267 352.118 68.15 350.952 68.15C348.131 68.15 345.294 68.4873 342.442 69.162ZM370.392 86.872C369.534 85.5227 368.936 83.974 368.598 82.226C368.261 80.478 368.092 78.2853 368.092 75.648C368.092 72.98 368.261 70.772 368.598 69.024C368.936 67.276 369.534 65.7427 370.392 64.424C371.282 63.0747 372.539 62.0933 374.164 61.48C375.82 60.8667 377.906 60.56 380.42 60.56C382.935 60.56 385.005 60.8667 386.63 61.48C388.256 62.0933 389.513 63.0747 390.402 64.424C391.292 65.7427 391.89 67.276 392.196 69.024C392.534 70.772 392.702 72.98 392.702 75.648C392.702 78.316 392.534 80.524 392.196 82.272C391.89 83.9893 391.292 85.5227 390.402 86.872C389.513 88.1907 388.256 89.1567 386.63 89.77C385.005 90.3833 382.935 90.69 380.42 90.69C377.906 90.69 375.82 90.3833 374.164 89.77C372.539 89.1567 371.282 88.1907 370.392 86.872ZM377.568 70.404V83.284H379.5C380.88 83.284 381.846 83.146 382.398 82.87C382.95 82.5633 383.226 81.8887 383.226 80.846V67.966H381.064C379.715 67.966 378.795 68.104 378.304 68.38C377.814 68.656 377.568 69.3307 377.568 70.404ZM397.606 69.162L396.41 62.308C400.274 61.1427 404.123 60.56 407.956 60.56C409.49 60.56 410.762 60.606 411.774 60.698C412.817 60.79 413.89 61.02 414.994 61.388C416.098 61.756 416.972 62.262 417.616 62.906C419.088 64.378 419.824 66.632 419.824 69.668C419.824 72.704 418.966 74.9427 417.248 76.384C415.531 77.8253 411.912 79.4813 406.392 81.352V82.64H419.364V90H395.766V84.25C395.766 82.5327 396.088 80.892 396.732 79.328C397.131 78.4387 398.097 77.3653 399.63 76.108C400.458 75.4027 401.562 74.728 402.942 74.084C404.353 73.44 405.672 72.842 406.898 72.29C408.156 71.7073 409.168 71.232 409.934 70.864V68.38C408.554 68.2267 407.282 68.15 406.116 68.15C403.295 68.15 400.458 68.4873 397.606 69.162ZM425.188 69.162L423.992 62.308C427.856 61.1427 431.705 60.56 435.538 60.56C437.072 60.56 438.344 60.606 439.356 60.698C440.399 60.79 441.472 61.02 442.576 61.388C443.68 61.756 444.554 62.262 445.198 62.906C446.67 64.378 447.406 66.632 447.406 69.668C447.406 72.704 446.548 74.9427 444.83 76.384C443.113 77.8253 439.494 79.4813 433.974 81.352V82.64H446.946V90H423.348V84.25C423.348 82.5327 423.67 80.892 424.314 79.328C424.713 78.4387 425.679 77.3653 427.212 76.108C428.04 75.4027 429.144 74.728 430.524 74.084C431.935 73.44 433.254 72.842 434.48 72.29C435.738 71.7073 436.75 71.232 437.516 70.864V68.38C436.136 68.2267 434.864 68.15 433.698 68.15C430.877 68.15 428.04 68.4873 425.188 69.162Z" fill="white"/>
<path d="M8.2 158.032L10.664 143.512C16.0613 144.861 20.9013 145.536 25.184 145.536C29.5253 145.536 33.016 145.36 35.656 145.008V140.608L27.736 139.904C20.5787 139.259 15.6507 137.557 12.952 134.8C10.312 131.984 8.992 127.848 8.992 122.392C8.992 114.883 10.6053 109.72 13.832 106.904C17.1173 104.088 22.6613 102.68 30.464 102.68C38.2667 102.68 45.3067 103.413 51.584 104.88L49.384 118.96C43.928 118.08 39.5573 117.64 36.272 117.64C32.9867 117.64 30.2 117.787 27.912 118.08V122.392L34.248 123.008C41.9333 123.771 47.2427 125.619 50.176 128.552C53.1093 131.427 54.576 135.445 54.576 140.608C54.576 144.304 54.0773 147.443 53.08 150.024C52.0827 152.547 50.88 154.483 49.472 155.832C48.1227 157.123 46.1867 158.12 43.664 158.824C41.1413 159.528 38.912 159.939 36.976 160.056C35.0987 160.232 32.576 160.32 29.408 160.32C21.7813 160.32 14.712 159.557 8.2 158.032ZM100.349 118.08H87.5891V159H69.9891V118.08H57.2291V104H100.349V118.08ZM115.207 159H96.6393L110.895 104H138.087L152.343 159H133.775L131.751 150.288H117.231L115.207 159ZM124.007 120.896L120.399 136.296H128.495L124.975 120.896H124.007ZM188.016 159L174.552 139.464C174.083 138.819 173.79 137.411 173.672 135.24H173.32V159H155.72V104H172.264L185.728 123.536C186.198 124.181 186.491 125.589 186.608 127.76H186.96V104H204.56V159H188.016ZM213.384 159V104H238.024C247.939 104 254.744 106.112 258.44 110.336C262.136 114.56 263.984 121.629 263.984 131.544C263.984 141.4 262.136 148.44 258.44 152.664C254.744 156.888 247.939 159 238.024 159H213.384ZM238.288 118.08H230.984V144.92H238.288C240.694 144.92 242.424 144.656 243.48 144.128C244.595 143.541 245.152 142.251 245.152 140.256V122.744C245.152 120.749 244.595 119.488 243.48 118.96C242.424 118.373 240.694 118.08 238.288 118.08ZM270.103 159V104H287.703V159H270.103ZM328.782 159L315.318 139.464C314.849 138.819 314.555 137.411 314.438 135.24H314.086V159H296.486V104H313.03L326.494 123.536C326.963 124.181 327.257 125.589 327.374 127.76H327.726V104H345.326V159H328.782ZM382.31 142.808V140.432H377.822V126.968H399.03V156.36C392.049 159 384.833 160.32 377.382 160.32C367.35 160.32 360.457 157.885 356.702 153.016C354.766 150.493 353.417 147.531 352.654 144.128C351.891 140.725 351.51 136.531 351.51 131.544C351.51 126.499 351.891 122.304 352.654 118.96C353.475 115.557 354.913 112.595 356.966 110.072C360.838 105.144 368.318 102.68 379.406 102.68C381.694 102.68 384.657 102.915 388.294 103.384C391.99 103.853 394.689 104.381 396.39 104.968L393.75 118.432C388.998 117.611 384.686 117.2 380.814 117.2C377.001 117.2 374.302 117.493 372.718 118.08C371.193 118.667 370.43 119.84 370.43 121.6V146.504H376.238C378.35 146.504 379.875 146.299 380.814 145.888C381.811 145.419 382.31 144.392 382.31 142.808ZM404.716 158.032L407.18 143.512C412.577 144.861 417.417 145.536 421.7 145.536C426.041 145.536 429.532 145.36 432.172 145.008V140.608L424.252 139.904C417.094 139.259 412.166 137.557 409.468 134.8C406.828 131.984 405.508 127.848 405.508 122.392C405.508 114.883 407.121 109.72 410.348 106.904C413.633 104.088 419.177 102.68 426.98 102.68C434.782 102.68 441.822 103.413 448.1 104.88L445.9 118.96C440.444 118.08 436.073 117.64 432.788 117.64C429.502 117.64 426.716 117.787 424.428 118.08V122.392L430.764 123.008C438.449 123.771 443.758 125.619 446.692 128.552C449.625 131.427 451.092 135.445 451.092 140.608C451.092 144.304 450.593 147.443 449.596 150.024C448.598 152.547 447.396 154.483 445.988 155.832C444.638 157.123 442.702 158.12 440.18 158.824C437.657 159.528 435.428 159.939 433.492 160.056C431.614 160.232 429.092 160.32 425.924 160.32C418.297 160.32 411.228 159.557 404.716 158.032Z" fill="white"/>
</g>
</svg>
